<svg width="308" height="77" viewBox="0 0 308 77" fill="none" xmlns="http://www.w3.org/2000/svg">
<rect y="15.58" width="16.1247" height="16.1247" fill="#0057B8"/>
<rect x="15.58" y="15.58" width="16.1247" height="16.1247" fill="#0057B8"/>
<rect x="15.58" width="16.1247" height="16.1247" fill="#0057B8"/>
<rect width="16.1247" height="16.1247" transform="matrix(-1 0 0 1 76.7047 15.58)" fill="#0057B8"/>
<rect width="16.1247" height="16.1247" transform="matrix(-1 0 0 1 61.1247 15.58)" fill="#0057B8"/>
<rect width="16.1247" height="16.1247" transform="matrix(-1 0 0 1 61.1247 0)" fill="#0057B8"/>
<rect x="77" y="60.5562" width="16.1247" height="16.1247" transform="rotate(-180 77 60.5562)" fill="#FFD700"/>
<rect x="61.4201" y="60.5562" width="16.1247" height="16.1247" transform="rotate(-180 61.4201 60.5562)" fill="#FFD700"/>
<rect x="61.4201" y="76.1362" width="16.1247" height="16.1247" transform="rotate(-180 61.4201 76.1362)" fill="#FFD700"/>
<rect width="16.1247" height="16.1247" transform="matrix(1 0 0 -1 0.295395 60.5562)" fill="#FFD700"/>
<rect width="16.1247" height="16.1247" transform="matrix(1 0 0 -1 15.8753 60.5562)" fill="#FFD700"/>
<rect width="16.1247" height="16.1247" transform="matrix(1 0 0 -1 15.8753 76.1362)" fill="#FFD700"/>
<path d="M93.61 33V16.44H95.657V23.7425H104.374V16.44H106.421V33H104.374V25.686H95.657V33H93.61ZM109.647 33V16.44H120.112V18.3835H111.694V23.57H118.732V25.5135H111.694V31.0565H120.112V33H109.647ZM122.877 33V16.44H133.388V18.3835H124.924V22.788H129.42C129.581 22.788 129.773 22.7957 129.995 22.811C130.217 22.8187 130.432 22.8378 130.639 22.8685C131.513 22.9758 132.253 23.2672 132.859 23.7425C133.472 24.2102 133.936 24.8043 134.25 25.525C134.572 26.2457 134.733 27.0353 134.733 27.894C134.733 28.745 134.576 29.5308 134.262 30.2515C133.947 30.9722 133.483 31.5702 132.87 32.0455C132.264 32.5132 131.521 32.8045 130.639 32.9195C130.432 32.9425 130.217 32.9617 129.995 32.977C129.773 32.9923 129.581 33 129.42 33H122.877ZM124.924 31.0565H129.351C129.497 31.0565 129.662 31.0488 129.846 31.0335C130.037 31.0182 130.217 30.9952 130.386 30.9645C131.183 30.8035 131.758 30.424 132.111 29.826C132.464 29.2203 132.64 28.5763 132.64 27.894C132.64 27.1963 132.464 26.5523 132.111 25.962C131.758 25.364 131.183 24.9845 130.386 24.8235C130.217 24.7852 130.037 24.7622 129.846 24.7545C129.662 24.7392 129.497 24.7315 129.351 24.7315H124.924V31.0565ZM135.181 33L140.724 16.44H143.576L149.119 33H146.991L141.805 17.636H142.449L137.308 33H135.181ZM137.849 29.1245V27.204H146.451V29.1245H137.849ZM151.177 33V16.44H153.247V29.3775L161.884 16.44H163.954V33H161.884V20.051L153.247 33H151.177ZM157.652 14.991C157.069 14.991 156.54 14.8492 156.065 14.5655C155.597 14.2818 155.222 13.9062 154.938 13.4385C154.654 12.9632 154.512 12.4342 154.512 11.8515H156.168C156.168 12.2578 156.314 12.6067 156.605 12.898C156.897 13.1893 157.246 13.335 157.652 13.335C158.066 13.335 158.415 13.1893 158.698 12.898C158.99 12.6067 159.135 12.2578 159.135 11.8515H160.791C160.791 12.4342 160.65 12.9632 160.366 13.4385C160.09 13.9062 159.71 14.2818 159.227 14.5655C158.752 14.8492 158.227 14.991 157.652 14.991ZM166.365 35.76V31.0565C166.97 31.0565 167.461 30.9032 167.837 30.5965C168.22 30.2898 168.519 29.8758 168.734 29.3545C168.948 28.8255 169.109 28.2313 169.217 27.572C169.332 26.9127 169.424 26.2303 169.493 25.525C169.592 24.5283 169.673 23.5623 169.734 22.627C169.803 21.6917 169.864 20.7218 169.918 19.7175C169.972 18.7132 170.033 17.6168 170.102 16.4285L180.51 16.44V31.0565H181.717V35.76H179.67V33H168.412V35.76H166.365ZM169.953 31.0565H178.463V18.3835L172 18.372C171.954 19.2613 171.908 20.1162 171.862 20.9365C171.823 21.7492 171.773 22.5695 171.712 23.3975C171.651 24.2255 171.574 25.1033 171.482 26.031C171.398 26.8897 171.302 27.6333 171.195 28.262C171.095 28.883 170.949 29.4197 170.758 29.872C170.566 30.3167 170.298 30.7115 169.953 31.0565ZM186.827 33L188.805 28.8945L182.975 16.44H185.263L189.875 26.7095L194.59 16.44H196.775L189.047 33H186.827ZM196.853 33L203.822 24.4785L197.44 16.44H199.958L205.938 24.099V16.44H207.985V24.099L213.965 16.44H216.484L210.101 24.4785L217.07 33H214.483L207.985 25.019V33H205.938V25.019L199.441 33H196.853ZM219.15 33V16.44H221.197V33H219.15ZM236.06 33.345C234.411 33.345 233.012 32.9808 231.862 32.2525C230.712 31.5242 229.834 30.5122 229.229 29.2165C228.631 27.9208 228.332 26.422 228.332 24.72C228.332 23.018 228.631 21.5192 229.229 20.2235C229.834 18.9278 230.712 17.9158 231.862 17.1875C233.012 16.4592 234.411 16.095 236.06 16.095C237.976 16.095 239.552 16.5818 240.786 17.5555C242.028 18.5292 242.883 19.8402 243.351 21.4885L241.269 22.0405C240.932 20.8062 240.33 19.8325 239.464 19.1195C238.597 18.4065 237.463 18.05 236.06 18.05C234.825 18.05 233.798 18.3298 232.978 18.8895C232.157 19.4492 231.54 20.2312 231.126 21.2355C230.712 22.2322 230.501 23.3937 230.494 24.72C230.486 26.0387 230.689 27.2002 231.103 28.2045C231.517 29.2012 232.138 29.9832 232.966 30.5505C233.794 31.1102 234.825 31.39 236.06 31.39C237.463 31.39 238.597 31.0335 239.464 30.3205C240.33 29.5998 240.932 28.6262 241.269 27.3995L243.351 27.9515C242.883 29.5922 242.028 30.9032 240.786 31.8845C239.552 32.8582 237.976 33.345 236.06 33.345ZM245.873 33V16.44H256.338V18.3835H247.92V23.57H254.958V25.5135H247.92V31.0565H256.338V33H245.873ZM259.102 33V16.44H265.646C265.807 16.44 265.998 16.4477 266.221 16.463C266.443 16.4707 266.658 16.4937 266.865 16.532C267.762 16.67 268.513 16.9767 269.119 17.452C269.732 17.9273 270.192 18.5292 270.499 19.2575C270.805 19.9782 270.959 20.7793 270.959 21.661C270.959 22.535 270.802 23.3362 270.487 24.0645C270.181 24.7852 269.721 25.387 269.107 25.87C268.502 26.3453 267.754 26.652 266.865 26.79C266.658 26.8207 266.443 26.8437 266.221 26.859C265.998 26.8743 265.807 26.882 265.646 26.882H261.149V33H259.102ZM261.149 24.9385H265.577C265.722 24.9385 265.887 24.9308 266.071 24.9155C266.263 24.9002 266.443 24.8733 266.612 24.835C267.141 24.7123 267.57 24.49 267.9 24.168C268.237 23.8383 268.482 23.455 268.636 23.018C268.789 22.5733 268.866 22.121 268.866 21.661C268.866 21.201 268.789 20.7525 268.636 20.3155C268.482 19.8708 268.237 19.4837 267.9 19.154C267.57 18.8243 267.141 18.602 266.612 18.487C266.443 18.441 266.263 18.4142 266.071 18.4065C265.887 18.3912 265.722 18.3835 265.577 18.3835H261.149V24.9385ZM286.098 35.3V33H273.253V16.44H275.3V31.137H284.316V16.67H286.363V31.137H288.145V35.3H286.098ZM301.497 33H299.45V26.882H294.356L293.574 26.7555C292.286 26.5178 291.308 25.9313 290.641 24.996C289.974 24.053 289.641 22.9413 289.641 21.661C289.641 20.7793 289.794 19.9782 290.101 19.2575C290.415 18.5292 290.875 17.9273 291.481 17.452C292.094 16.9767 292.846 16.67 293.735 16.532C293.95 16.4937 294.164 16.4707 294.379 16.463C294.601 16.4477 294.793 16.44 294.954 16.44H301.497V33ZM291.642 33H289.296L292.884 25.64L294.908 26.261L291.642 33ZM299.45 24.9385V18.3835H295.023C294.885 18.3835 294.72 18.3912 294.528 18.4065C294.344 18.4142 294.164 18.441 293.988 18.487C293.459 18.602 293.03 18.8243 292.7 19.154C292.37 19.4837 292.125 19.8708 291.964 20.3155C291.811 20.7525 291.734 21.201 291.734 21.661C291.734 22.121 291.811 22.5733 291.964 23.018C292.125 23.455 292.37 23.8383 292.7 24.168C293.03 24.49 293.459 24.7123 293.988 24.835C294.164 24.8733 294.344 24.9002 294.528 24.9155C294.72 24.9308 294.885 24.9385 295.023 24.9385H299.45ZM96.1975 61L98.1755 56.8945L92.345 44.44H94.6335L99.245 54.7095L103.96 44.44H106.145L98.417 61H96.1975ZM108.052 61V44.44H110.099V52.214L117.344 44.44H119.92L112.399 52.4785L120.507 61H117.862L110.099 52.904V61H108.052ZM122.113 61V44.44H128.656C128.817 44.44 129.009 44.4477 129.231 44.463C129.454 44.4707 129.668 44.4937 129.875 44.532C130.772 44.67 131.524 44.9767 132.129 45.452C132.743 45.9273 133.203 46.5292 133.509 47.2575C133.816 47.9782 133.969 48.7793 133.969 49.661C133.969 50.535 133.812 51.3362 133.498 52.0645C133.191 52.7852 132.731 53.387 132.118 53.87C131.512 54.3453 130.765 54.652 129.875 54.79C129.668 54.8207 129.454 54.8437 129.231 54.859C129.009 54.8743 128.817 54.882 128.656 54.882H124.16V61H122.113ZM124.16 52.9385H128.587C128.733 52.9385 128.898 52.9308 129.082 52.9155C129.274 52.9002 129.454 52.8733 129.622 52.835C130.151 52.7123 130.581 52.49 130.91 52.168C131.248 51.8383 131.493 51.455 131.646 51.018C131.8 50.5733 131.876 50.121 131.876 49.661C131.876 49.201 131.8 48.7525 131.646 48.3155C131.493 47.8708 131.248 47.4837 130.91 47.154C130.581 46.8243 130.151 46.602 129.622 46.487C129.454 46.441 129.274 46.4142 129.082 46.4065C128.898 46.3912 128.733 46.3835 128.587 46.3835H124.16V52.9385ZM134.417 61L139.96 44.44H142.812L148.355 61H146.228L141.041 45.636H141.685L136.545 61H134.417ZM137.085 57.1245V55.204H145.687V57.1245H137.085ZM152.886 42.186V40.116H154.956V42.186H152.886ZM148.378 42.186V40.116H150.448V42.186H148.378ZM150.644 61V44.44H152.691V61H150.644ZM156.141 61V44.44H158.188V51.7425H166.905V44.44H168.952V61H166.905V53.686H158.188V61H156.141ZM184.955 61H182.885V48.051L174.248 61H172.178V44.44H174.248V57.3775L182.885 44.44H184.955V61Z" fill="black"/>
</svg>
